<svg xmlns="http://www.w3.org/2000/svg" viewBox="0 0 91.864 91.863">
  <defs>
    <style>
      .cls-1 {
        fill: #c90606;
      }

      .cls-2 {
        fill: #e4e4e4;
        stroke: #fff;
        stroke-width: 0.1px;
      }
    </style>
  </defs>
  <g id="Symbol_30_1" data-name="Symbol 30 – 1" transform="translate(-2846.316 147.582)">
    <circle id="Ellipse_14" data-name="Ellipse 14" class="cls-1" cx="45.932" cy="45.932" r="45.932" transform="translate(2846.316 -147.582)"/>
    <g id="business" transform="translate(2871.369 -122.529)">
      <path id="Path_222" data-name="Path 222" class="cls-2" d="M76.974,93.735H73.957V65.712A2.733,2.733,0,0,0,71.232,63H67.49a2.733,2.733,0,0,0-2.729,2.729V93.752H60.018V78.52a2.738,2.738,0,0,0-2.733-2.733H53.569a2.733,2.733,0,0,0-2.733,2.733V93.752h-4.9V86.281A2.733,2.733,0,0,0,43.2,83.547H39.467a2.733,2.733,0,0,0-2.712,2.733v7.471H33.862a.862.862,0,0,0,0,1.724H76.974a.862.862,0,1,0,0-1.724Zm-38.512,0V86.281a1,1,0,0,1,1-1.026H43.2a1.009,1.009,0,0,1,1,1.026v7.471Zm14.08,0V78.52a1.009,1.009,0,0,1,1.009-1.009h3.734a1.009,1.009,0,0,1,1.026,1.009V93.752Zm13.93,0V65.712a1,1,0,0,1,1.017-.987h3.738a1,1,0,0,1,1,.987V93.735Z" transform="translate(-33 -49.545)"/>
      <path id="Path_223" data-name="Path 223" class="cls-2" d="M51.268,57.153a.862.862,0,0,0,.612-.267L67.922,40.848l4.389,4.4,10.269-10.3V38.9a.862.862,0,0,0,1.724,0V31.79l-7.243.491a.864.864,0,0,0,.116,1.725l4.195-.289L72.32,42.771l-4.4-4.363L50.678,55.683a.87.87,0,0,0,.591,1.47Z" transform="translate(-42.917 -31.79)"/>
      <path id="Path_224" data-name="Path 224" class="cls-2" d="M45.3,94.367a.789.789,0,1,0-.562-.231A.793.793,0,0,0,45.3,94.367Z" transform="translate(-39.548 -66.486)"/>
    </g>
  </g>
</svg>
