<svg xmlns="http://www.w3.org/2000/svg" viewBox="0 0 22 22">
  <defs>
    <style>
      .cls-1 {
        fill: #13c4a4;
      }

      .cls-2 {
        fill: #fff;
      }
    </style>
  </defs>
  <g id="Symbol_37_1" data-name="Symbol 37 – 1" transform="translate(-2664 -506)">
    <circle id="Ellipse_14" data-name="Ellipse 14" class="cls-1" cx="11" cy="11" r="11" transform="translate(2664 506)"/>
    <path id="culture" class="cls-2" d="M52.656,38.625c-.11-.119-.813,0-1.1,0s-.526-.645-.526-.812.1-.358-.31-1.315-1.644-.931-1.982-.907-.405.191-.507.1a.617.617,0,0,0-.424-.144c-.168,0-.024-.334-.454-.6s-.931.024-1.6.191a1.821,1.821,0,0,0-1.028.836c.036.168-.023.18-.274.263s-.346.3-.573.717a2.753,2.753,0,0,0-.131,1.636,1.559,1.559,0,0,0,1.217,1.278,6.5,6.5,0,0,0,1.506.036c.168.06.11.251.393.346a.285.285,0,0,1,.18.381c.047.67.239.526.454,1.051s.024.526,0,1.577a2.032,2.032,0,0,0,.137.957,9.652,9.652,0,0,1,.644,1.237c.072.211.168.37.416.387.477.03.975-.469,1.279-.785a1.906,1.906,0,0,0,.568-.965,1.849,1.849,0,0,1,.562-.926c.239-.219.191-.67.167-.86s.192-.668.192-1.051c0-.587.686-.96.975-1.425C52.582,39.6,52.913,38.9,52.656,38.625Zm-2.4-2.508.322.478h-.644Zm.322.788-.219.6-.424-.6Zm-1.27-.931.454.621s-.788-.024-.907,0Zm.454.908-.454.62-.449-.62c.121.023.907,0,.907,0Zm-1.534-.908.454.621s-.788-.024-.907,0Zm.454.908-.454.62-.454-.62c.129.023.917,0,.917,0Zm-1.518-.908.454.621s-.789-.024-.908,0Zm.454.908-.454.62-.455-.62C46.827,36.9,47.616,36.882,47.616,36.882Zm-1.433-.908.454.621s-.788-.024-.907,0Zm.454.908-.454.62-.454-.62C45.849,36.9,46.636,36.882,46.636,36.882Zm-1.529-.908.454.621s-.788-.024-.907,0Zm.454.908-.454.62-.454-.62C44.774,36.9,45.561,36.882,45.561,36.882Zm-1.4,0h.329l-.477.62Zm-.142,1.385v-.548l3.5.036L46.458,38.8l-.92-.919-1.074,1.075-.454-.451Zm1.1,1.432.454-.512.431.512Zm1.14-.169a.1.1,0,0,1-.135,0l-.577-.576-.673.67a.1.1,0,0,1-.067.028.1.1,0,0,1-.068-.028.1.1,0,0,1,0-.135l.805-.805.712.712a.1.1,0,0,1,0,.135Zm.226-.158-.931-.931-.918.917a.123.123,0,0,1-.088.036h-.01c-.138-.01-.4-.329-.594-.593a.1.1,0,0,1,.155-.11,3.158,3.158,0,0,0,.438.5l1.019-1.019.931.931,1.037-1.037,1.039,1.039.946-.946.877.877.11-.11-1.047-1.046-.885.986-.986-1.119H50.8l.264.516V38.4a.094.094,0,0,1,.058.026.093.093,0,0,1,0,.135l-.745.746-.877-.877-.946.945L47.51,38.335Zm1.835,5.975h.907s-.583.467-.91,0Zm0-.3h1.3s-.833.468-1.3,0Zm1.888-.536a.1.1,0,0,1-.135,0l-.614-.614-.927.928-.736-.736a.1.1,0,0,1,.135-.14l.6.6.925-.925.748.748a.1.1,0,0,1,0,.138Zm.227-.329a.1.1,0,0,1-.135,0l-.8-.8-.908.908-.922-.922a.1.1,0,1,1,.135-.135l.78.78.908-.907.933.934a.1.1,0,0,1,0,.135Zm.548-1.027-.6.6-.952-.956-.907.908-.844-.844a.1.1,0,0,1,0-.136.1.1,0,0,1,.135,0l.709.709.907-.907.95.949.469-.47a.1.1,0,0,1,.136.136Zm.057-.922h-3.2a.1.1,0,0,1,0-.192h3.2a.1.1,0,1,1,0,.192Zm.263-1.385H47.3a.1.1,0,0,1,0-.192h3.989a.1.1,0,0,1,0,.192Zm.334-.516H47.334l-.172-.23h-.192l-.144-.191.762-.7.959.96.929-.928.92.92.828-.827.7.7Zm.84-.845-.375.375-.887-.887-.848.853-.821-.821-.933.933-1.075-1.075-.755.755a.1.1,0,0,1-.135-.135l.89-.89,1.075,1.079.933-.933.821.821.848-.847.887.887.24-.24a.1.1,0,0,1,.135.135Zm.053-.512-.359.37-.458-.458a.1.1,0,0,1,0-.135.1.1,0,0,1,.136,0l.322.322.219-.219a.1.1,0,0,1,.135,0,.093.093,0,0,1,.005.124Z" transform="translate(2626.316 477.161)"/>
  </g>
</svg>
