<svg xmlns="http://www.w3.org/2000/svg" viewBox="0 0 91.864 91.863">
  <defs>
    <style>
      .cls-1 {
        fill: #638894;
      }

      .cls-2 {
        fill: #fff;
      }
    </style>
  </defs>
  <g id="Symbol_23_1" data-name="Symbol 23 – 1" transform="translate(-3296.316 349.069)">
    <circle id="Ellipse_14" data-name="Ellipse 14" class="cls-1" cx="45.932" cy="45.932" r="45.932" transform="translate(3296.316 -349.069)"/>
    <g id="education" transform="translate(3323.457 -326.103)">
      <path id="Path_58" data-name="Path 58" class="cls-2" d="M39.261,966.386a3.4,3.4,0,0,0-1.213.256L22.085,973.09c-.766.32-.766.831,0,1.15l6.513,2.618h0v5.171a10.855,10.855,0,1,0,21.709,0v-5.171l2.554-1.021v3.447a1.935,1.935,0,0,0-.639,1.4,1.881,1.881,0,0,0,1.915,1.915,1.921,1.921,0,0,0,1.915-1.915,1.83,1.83,0,0,0-.638-1.4v-4.469l1.469-.574c.766-.32.766-.831,0-1.15l-15.962-6.448c-.064,0-.064-.064-.128-.064A2.992,2.992,0,0,0,39.261,966.386Zm.255,1.916,13.089,5.3-13.089,5.3-13.153-5.3Zm-8.3,9.577,6.9,2.81a4.434,4.434,0,0,0,2.873,0l6.9-2.81v4.15a8.3,8.3,0,1,1-16.6,0v-4.15Zm8.3,17.686c-10.088,0-18.516,6.768-18.516,15.452a1.28,1.28,0,0,0,1.277,1.277H56.756a1.28,1.28,0,0,0,1.277-1.277C58.033,1002.333,49.6,995.565,39.516,995.565Zm0,2.554c8.364,0,15,5.236,15.835,11.621H23.746C24.512,1003.355,31.152,998.12,39.516,998.12Z" transform="translate(-21 -966.362)"/>
    </g>
  </g>
</svg>
