<svg xmlns="http://www.w3.org/2000/svg" viewBox="0 0 91.864 91.863">
  <defs>
    <style>
      .cls-1 {
        fill: #6db230;
      }

      .cls-2 {
        fill: #fff;
      }
    </style>
  </defs>
  <g id="Symbol_25_1" data-name="Symbol 25 – 1" transform="translate(-3910.316 349.532)">
    <circle id="Ellipse_14" data-name="Ellipse 14" class="cls-1" cx="45.932" cy="45.932" r="45.932" transform="translate(3910.316 -349.532)"/>
    <g id="Environment" transform="translate(3933.282 -326.566)">
      <path id="Path_159" data-name="Path 159" class="cls-2" d="M9.67,49.431c-.594,0-1.6-.366-1.6.732,0,1.006.914.731,1.6.777a6.2,6.2,0,0,1,6.035,5.486c.869,4.664-.686,8.915-2.332,13.3A18.468,18.468,0,0,0,7.2,64.381C.709,61.135.252,59.763,3.544,53.454a1.14,1.14,0,0,0-.137-1.463c-.457-.457-.732.183-1.052.457A8.286,8.286,0,0,0-.16,56.517a7.631,7.631,0,0,0-.183,3.52c.366,2.743,2.515,4.435,4.938,5.578,2.652,1.234,5.532,2.926,7.178,5.441.411.64.732,1.326,1.463,1.509.457.137.869.229,1.052-.183a18.845,18.845,0,0,0,.869-2.56c1.463-4.023,2.652-8.093,2.286-12.436C17.077,52.494,13.922,49.293,9.67,49.431Z" transform="translate(0.463 -26.749)"/>
      <path id="Path_160" data-name="Path 160" class="cls-2" d="M80.066,48.4c-5.486.229-10.7,1.463-15.271,4.572-3.932,2.652-5.029,7-2.88,10.516.32.5.5,1.463,1.463.96,1.006-.5.274-1.143,0-1.692a5.6,5.6,0,0,1,.869-7.132c3.658-3.7,8.458-4.663,13.579-5.486a21.639,21.639,0,0,0-1.463,9.921c.32,5.029-2.24,7.315-7.224,6.812-.914-.091-1.646-.091-1.92,1.006,3.84,1.646,7.635.732,9.464-2.332a10.442,10.442,0,0,0,1.1-6.629c-.32-3.292,1.143-7.178,2.286-9.281C80.249,49.314,80.432,48.491,80.066,48.4Z" transform="translate(-32.808 -26.222)"/>
      <path id="Path_161" data-name="Path 161" class="cls-2" d="M33.712,16.355c4.526,2.012,8.733.823,10.744-2.88.229-.457,1.006-1.006.137-1.554-.823-.5-1.143.046-1.554.686-2.1,3.155-4.755,3.886-8.275,2.423-4.115-1.737-7.087-4.8-9.876-8.413a24.337,24.337,0,0,0,9.6-3.886C37.964.49,42.125.947,43.725,5.61a2.667,2.667,0,0,0,.366.823.987.987,0,0,0,1.189.457c.411-.183.274-.64.183-1.006C44.776,3.1,43.268,1.038,40.479.17A11.981,11.981,0,0,0,38.558-.1a11.284,11.284,0,0,0-2.469.32h0a.168.168,0,0,0-.137.046c-3.2,1.28-7.864,5.029-12.847,4.846-.869-.046-.96.823-.411,1.554C25.757,10.548,29.048,14.252,33.712,16.355Z" transform="translate(-11.92 0.109)"/>
      <path id="Path_162" data-name="Path 162" class="cls-2" d="M49.3,16.686a11.609,11.609,0,0,1-5.852-.594c-.549-.229-1.1-.32-1.372.274-.366.777.274,1.1.869,1.28a16.072,16.072,0,0,0,6.081.64c5.441-.686,9.6,1.554,12.8,5.807.869,1.143,1.692,2.332,2.469,3.52.32.5.686.823,1.28.457.64-.411.366-.869.046-1.372-.686-1.006-1.28-2.057-2.012-3.018C60.087,18.881,55.606,16.046,49.3,16.686Z" transform="translate(-22.567 -8.59)"/>
      <path id="Path_163" data-name="Path 163" class="cls-2" d="M16.349,47.683c.137.594.137,1.417.96,1.234.96-.183.64-1.052.5-1.692a15.128,15.128,0,0,0-2.789-5.944,12.319,12.319,0,0,1-1.463-11.7,28.613,28.613,0,0,1,2.423-5.4c.32-.549.411-1.006-.183-1.372-.64-.411-1.006.046-1.28.549-1.829,3.429-3.52,6.9-3.52,11.8a12.66,12.66,0,0,0,1.92,5.852C14.292,43.156,15.8,45.168,16.349,47.683Z" transform="translate(-5.759 -12.245)"/>
      <path id="Path_164" data-name="Path 164" class="cls-2" d="M61.9,64.582c.549-.411,1.234-.914.457-1.646-.594-.549-1.1.046-1.555.411A16.19,16.19,0,0,0,57.049,68.7c-2.286,4.892-6.447,7.041-11.567,7.635-1.143.137-2.286.229-3.383.32-.64.046-1.646-.091-1.6.823.046.823,1.006.731,1.692.731H43.1c7.224-.229,12.985-2.7,16-9.83A8.172,8.172,0,0,1,61.9,64.582Z" transform="translate(-21.77 -33.991)"/>
    </g>
  </g>
</svg>
