<svg xmlns="http://www.w3.org/2000/svg" viewBox="0 0 39 39">
  <defs>
    <style>
      .cls-1 {
        fill: #f5f5f5;
      }

      .cls-2 {
        fill: #3e3e3e;
        fill-rule: evenodd;
      }
    </style>
  </defs>
  <g id="Symbol_34_1" data-name="Symbol 34 – 1" transform="translate(-211 -1926)">
    <circle id="Ellipse_11" data-name="Ellipse 11" class="cls-1" cx="19.5" cy="19.5" r="19.5" transform="translate(211 1926)"/>
    <path id="Path_153" data-name="Path 153" class="cls-2" d="M304.262-343.888v18.876a1.258,1.258,0,0,1-1.209.987c-1.653,0-3.306,0-4.958.005-.255,0-.341-.077-.34-.335q.012-3.68,0-7.36c0-.268.1-.333.349-.329.616.012,1.233,0,1.849,0,.574,0,.568,0,.635-.58.087-.749.176-1.5.294-2.242.054-.339-.051-.441-.384-.435-.8.016-1.6,0-2.4,0-.179,0-.343.007-.339-.253.01-.626-.028-1.255.014-1.879.059-.864.311-1.176,1.087-1.281a11.178,11.178,0,0,1,1.763-.053c.34.009.429-.117.422-.429-.016-.678-.024-1.358,0-2.036.014-.349-.141-.478-.448-.481-.928-.011-1.861-.076-2.783-.006a3.63,3.63,0,0,0-3.339,3.464c-.045.859-.052,1.72-.054,2.58,0,.291-.1.387-.389.379-.655-.017-1.312,0-1.967-.009-.277-.006-.362.1-.358.366.014.835.015,1.671,0,2.506-.005.284.074.4.374.39.616-.018,1.234.016,1.849-.012.373-.017.5.09.494.476q-.025,3.543,0,7.086c0,.393-.133.471-.5.469-3.1-.013-6.191-.007-9.287-.008-.943,0-1.368-.421-1.368-1.356,0-5.964.01-11.928-.012-17.892,0-.8.2-1.376,1-1.633h18.972A1.527,1.527,0,0,1,304.262-343.888Z" transform="translate(-63.262 2279.906)"/>
  </g>
</svg>
