<svg xmlns="http://www.w3.org/2000/svg" viewBox="0 0 22 22">
  <defs>
    <style>
      .cls-1 {
        fill: #05acd6;
      }

      .cls-2 {
        fill: #fff;
      }
    </style>
  </defs>
  <g id="Symbol_38_1" data-name="Symbol 38 – 1" transform="translate(-2609 -497)">
    <circle id="Ellipse_16" data-name="Ellipse 16" class="cls-1" cx="11" cy="11" r="11" transform="translate(2609 497)"/>
    <path id="health" class="cls-2" d="M27.418,29.7H26.406a3.129,3.129,0,0,0-3.718-4.224,4.32,4.32,0,0,0-1.855,1.191,4.313,4.313,0,0,0-1.854-1.191A3.129,3.129,0,0,0,15.262,29.7H14.084a.315.315,0,1,0,0,.629h1.5a3.886,3.886,0,0,0,.6.737c1.381,1.334,4.4,4.268,4.433,4.3a.315.315,0,0,0,.438,0c.03-.029,3.054-2.963,4.434-4.3a3.935,3.935,0,0,0,.6-.739h1.33a.315.315,0,1,0,0-.629Zm-11.4-2.508a2.627,2.627,0,0,1,2.181-1.2,2.151,2.151,0,0,1,.609.086,3.812,3.812,0,0,1,1.789,1.264.313.313,0,0,0,.491,0,3.78,3.78,0,0,1,1.789-1.264A2.509,2.509,0,0,1,25.663,29.8H22.847l-.393-1.168a.209.209,0,0,0-.2-.141.213.213,0,0,0-.2.136L20.943,31.6,19.7,28.056a.209.209,0,0,0-.383-.028L18.378,29.8H16.008A2.569,2.569,0,0,1,16.013,27.19Zm9.034,3.422C23.889,31.736,21.557,34,20.833,34.7c-.723-.7-3.052-2.962-4.21-4.086a3.211,3.211,0,0,1-.343-.393h2.229a.21.21,0,0,0,.186-.112l.772-1.463,1.28,3.638a.209.209,0,0,0,.2.14h0a.21.21,0,0,0,.2-.136l1.1-2.96.256.753a.21.21,0,0,0,.2.142h2.7a3.3,3.3,0,0,1-.343.391Z" transform="translate(2599.249 477.64)"/>
  </g>
</svg>
