<svg xmlns="http://www.w3.org/2000/svg" viewBox="0 0 91.864 91.863">
  <defs>
    <style>
      .cls-1 {
        fill: #df4b7a;
      }

      .cls-2 {
        fill: #fff;
      }
    </style>
  </defs>
  <g id="Symbol_22_1" data-name="Symbol 22 – 1" transform="translate(-3043.316 431.302)">
    <circle id="Ellipse_14" data-name="Ellipse 14" class="cls-1" cx="45.932" cy="45.932" r="45.932" transform="translate(3043.316 -431.302)"/>
    <g id="family" transform="translate(3051.667 -406.249)">
      <path id="Path_231" data-name="Path 231" class="cls-2" d="M79.816,62.091a18.447,18.447,0,0,0-8.582-5.178,9.524,9.524,0,1,0-9.71,0,18.368,18.368,0,0,0-6.4,3.2,6.717,6.717,0,0,0-11.259,0,18.367,18.367,0,0,0-6.4-3.2,9.524,9.524,0,1,0-9.71,0,18.488,18.488,0,0,0-8.587,5.178c-3.043,3.263-7.394,10.091-4.391,15,1.258,2.05,8.637,4.146,14.773,5.514v.105h0v-.08c3.4.767,6.416,1.318,7.805,1.5h0c.14.025,1.283.221,3.093.431a61.047,61.047,0,0,0,8.522.561h1a61.047,61.047,0,0,0,8.522-.561c1.81-.211,2.953-.406,3.093-.431h0c1.755-.261,6.111-1.073,10.527-2.176v.3h0v-.3c5.419-1.348,10.958-3.138,12.031-4.888C87.215,72.182,82.864,65.354,79.816,62.091ZM58.862,48.731a7.519,7.519,0,1,1,7.519,7.519A7.519,7.519,0,0,1,58.862,48.731ZM49.478,59.058a4.727,4.727,0,1,1-4.727,4.727A4.727,4.727,0,0,1,49.478,59.058ZM59,82.488l-.451.065a85.055,85.055,0,0,1-9.023.572,84.356,84.356,0,0,1-9.133-.577l-.416-.06h0c-.932-.115-1.614-.216-1.98-.271h0l-.261-.035c.3-5.79,5.514-11.48,10.848-11.655a2.192,2.192,0,0,1,.256,0h.571c5.384.251,10.472,5.945,10.667,11.825l-1.093.14ZM25.1,48.731a7.519,7.519,0,1,1,7.519,7.519A7.519,7.519,0,0,1,25.1,48.731Zm-8.6,27.31c-2.376-3.885,1.674-9.93,4.151-12.582A16.362,16.362,0,0,1,43.017,61.99a6.632,6.632,0,0,0-.251,1.795A6.727,6.727,0,0,0,45.4,69.114a15.222,15.222,0,0,0-9.63,12.758C29,80.7,17.516,77.7,16.494,76.042Zm66.01,0c-1.083,1.76-13.891,5.013-20.412,6.015A15.314,15.314,0,0,0,53.2,69.4a6.727,6.727,0,0,0,3.008-5.614,6.633,6.633,0,0,0-.251-1.795,16.362,16.362,0,0,1,22.393,1.469C80.829,66.111,84.879,72.182,82.5,76.042Z" transform="translate(-13.773 -39.194)"/>
      <path id="Path_232" data-name="Path 232" class="cls-2" d="M133.089,86.59a1.363,1.363,0,1,0,1.358,1.359A1.363,1.363,0,0,0,133.089,86.59Z" transform="translate(-72.595 -62.831)"/>
      <path id="Path_233" data-name="Path 233" class="cls-2" d="M138.306,91.885a1,1,0,0,0-1.218,1.594,9.214,9.214,0,0,1,3.118,6.472,1,1,0,0,0,1,.937h.065a1,1,0,0,0,.937-1.068A11.249,11.249,0,0,0,138.306,91.885Z" transform="translate(-75.075 -65.369)"/>
    </g>
  </g>
</svg>
