<svg xmlns="http://www.w3.org/2000/svg" viewBox="0 0 91.864 91.863">
  <defs>
    <style>
      .cls-1 {
        fill: #e22028;
      }

      .cls-2 {
        fill: #f5f5f5;
      }
    </style>
  </defs>
  <g id="Symbol_21_1" data-name="Symbol 21 – 1" transform="translate(-2819.316 478.926)">
    <circle id="Ellipse_14" data-name="Ellipse 14" class="cls-1" cx="45.932" cy="45.932" r="45.932" transform="translate(2819.316 -478.926)"/>
    <g id="human-rights" transform="translate(2836.018 -453.872)">
      <path id="Path_216" data-name="Path 216" class="cls-2" d="M48.946,77.615a.759.759,0,0,0,.036-.3.675.675,0,0,0-.085-.268l-.076-.939a3.87,3.87,0,0,0-1.667-2.681l-.322-1.292c-.308-1.242-2.726-6.431-6.936-8.938a9.273,9.273,0,0,0-6.7-1.216L29.35,53.993a2.82,2.82,0,0,0-5.22,2.114l3.647,10.971a6.444,6.444,0,0,0,2.681,3.414l6.426,4.022a3.883,3.883,0,0,0-1.077,3.128h0l.112.943a.126.126,0,0,0,0,.04.711.711,0,0,0,.027.174l.447,3.991a3.875,3.875,0,0,0,3.861,3.477h5.184a3.888,3.888,0,0,0,3.857-4.362ZM47.4,76.721c-3.629.375-8.352.867-10.109,1.037l-.04-.34a2.427,2.427,0,0,1,2.15-2.655l5.313-.563a2.408,2.408,0,0,1,1.363.246.572.572,0,0,0,.112.067,2.373,2.373,0,0,1,1.175,1.734ZM29.153,66.591,25.507,55.619a1.35,1.35,0,1,1,2.5-1.014L32.031,63A4.174,4.174,0,0,0,34.2,66.474l3.575,1.953a.734.734,0,1,0,.706-1.287L34.9,65.187A2.717,2.717,0,0,1,33.564,63.4a7.829,7.829,0,0,1,5.573,1.055A16.432,16.432,0,0,1,45.393,72.5l.076.3a4.214,4.214,0,0,0-.925-.04l-5.318.568a3.832,3.832,0,0,0-1.041.264l-6.962-4.371A4.96,4.96,0,0,1,29.153,66.591ZM47.266,83.934a2.418,2.418,0,0,1-1.828.827H40.25a2.409,2.409,0,0,1-2.409-2.167l-.389-3.356c2.1-.2,7.664-.782,10.064-1.032l.317,3.821A2.4,2.4,0,0,1,47.266,83.934Z" transform="translate(-23.977 -40.335)"/>
      <path id="Path_217" data-name="Path 217" class="cls-2" d="M112.913,52.847a2.82,2.82,0,0,0-4.1,1.153l-3.848,7.986a9.286,9.286,0,0,0-6.7,1.216c-4.21,2.507-6.627,7.7-6.936,8.938l-.322,1.292a3.857,3.857,0,0,0-1.667,2.681l-.161,1.2h0l-.666,4.974a3.232,3.232,0,0,0,.4,2.887,3.39,3.39,0,0,0,2.726.921c.313,0,.621,0,.894-.027a7.434,7.434,0,0,1,.773,0,.733.733,0,1,0,0-1.466h-.84c-.894.04-2.065.094-2.449-.366a2.183,2.183,0,0,1-.089-1.658v-.063l.576-4.321c2.351.246,8.044.84,10.176,1.041l-.407,3.852a.625.625,0,0,0,0,.089.849.849,0,0,1-.214.684c-.447.447-1.752.447-2.681.4h-.653a.733.733,0,0,0,0,1.466h.612c1.265.031,2.847.072,3.758-.831a2.3,2.3,0,0,0,.652-1.7l.59-5.6a3.884,3.884,0,0,0-1.077-3.128l6.426-4.022a6.463,6.463,0,0,0,2.681-3.414l3.647-10.971A2.829,2.829,0,0,0,112.913,52.847Zm-22.192,23.9.058-.447a2.413,2.413,0,0,1,1.216-1.788l.04-.027a2.422,2.422,0,0,1,1.394-.268l5.318.563a2.422,2.422,0,0,1,2.145,2.681l-.036.335C99.1,77.613,94.358,77.122,90.721,76.742Zm21.92-21.115L108.994,66.6a4.961,4.961,0,0,1-2.069,2.632L99.944,73.6a3.827,3.827,0,0,0-1.041-.264l-5.336-.563a4.212,4.212,0,0,0-.894,0l.076-.3a16.546,16.546,0,0,1,6.256-8.044,7.83,7.83,0,0,1,5.568-1.037,2.717,2.717,0,0,1-1.341,1.788l-3.575,1.953a.733.733,0,0,0,.353,1.376.71.71,0,0,0,.349-.089l3.575-1.953A4.174,4.174,0,0,0,106.08,63l4.022-8.393a1.35,1.35,0,1,1,2.5,1.014Z" transform="translate(-59.594 -40.342)"/>
      <path id="Path_218" data-name="Path 218" class="cls-2" d="M91.777,44.492a3.03,3.03,0,0,0,3.03-3.025V35.05A3.021,3.021,0,0,0,93.239,32.4a4.022,4.022,0,1,0-5.51,0A3.03,3.03,0,0,0,86.16,35.05v6.417a3.03,3.03,0,0,0,3.025,3.025Zm-1.3-17.616a2.574,2.574,0,1,1-2.574,2.574A2.574,2.574,0,0,1,90.481,26.876Zm-2.86,14.591V35.05a1.56,1.56,0,0,1,1.56-1.56h2.6a1.56,1.56,0,0,1,1.56,1.56v6.417a1.56,1.56,0,0,1-1.56,1.56h-2.6A1.564,1.564,0,0,1,87.621,41.467Z" transform="translate(-58.371 -25.441)"/>
      <path id="Path_219" data-name="Path 219" class="cls-2" d="M71.809,32.393a4.022,4.022,0,1,0-5.506,0,3.021,3.021,0,0,0-1.573,2.655v6.417a3.03,3.03,0,0,0,3.025,3.025h2.6a3.03,3.03,0,0,0,3.025-3.025V40.088a.733.733,0,0,0-1.466,0v1.376a1.564,1.564,0,0,1-1.56,1.56h-2.6a1.564,1.564,0,0,1-1.564-1.56V35.047a1.56,1.56,0,0,1,1.56-1.56h2.6a1.56,1.56,0,0,1,1.56,1.56v2.19a.733.733,0,1,0,1.466,0v-2.19A3.021,3.021,0,0,0,71.809,32.393Zm-2.753-5.519a2.574,2.574,0,1,1-2.574,2.574A2.574,2.574,0,0,1,69.056,26.874Z" transform="translate(-46.518 -25.438)"/>
      <path id="Path_220" data-name="Path 220" class="cls-2" d="M110.414,52.669h1.475a2.234,2.234,0,0,0,2.212-2.234V46.895a2.454,2.454,0,0,0-.894-1.9,2.775,2.775,0,1,0-4.094,0,2.453,2.453,0,0,0-.894,1.9V50.47A2.234,2.234,0,0,0,110.414,52.669Zm2.235-2.234a.742.742,0,0,1-.746.742h-1.475a.742.742,0,0,1-.76-.706V46.895a1,1,0,0,1,1-.992h.974a1,1,0,0,1,1,.992Zm-1.5-8.634a1.309,1.309,0,1,1-1.3,1.3A1.31,1.31,0,0,1,111.152,41.8Z" transform="translate(-70.573 -33.684)"/>
      <path id="Path_221" data-name="Path 221" class="cls-2" d="M51.514,52.542h1.475A2.234,2.234,0,0,0,55.2,50.334V46.759a2.458,2.458,0,0,0-.894-1.9,2.775,2.775,0,1,0-4.094,0,2.458,2.458,0,0,0-.894,1.9v3.575A2.234,2.234,0,0,0,51.514,52.542Zm2.234-2.208a.742.742,0,0,1-.742.742H51.532a.746.746,0,0,1-.746-.742V46.759a1,1,0,0,1,1-1h.97a.992.992,0,0,1,.992,1Zm-1.5-8.656a1.3,1.3,0,1,1-1.287,1.3,1.3,1.3,0,0,1,1.287-1.3Z" transform="translate(-37.995 -33.607)"/>
    </g>
  </g>
</svg>
