<svg xmlns="http://www.w3.org/2000/svg" viewBox="0 0 39 39">
  <defs>
    <style>
      .cls-1 {
        fill: #f5f5f5;
      }

      .cls-2 {
        fill: #3e3e3e;
      }

      .cls-3 {
        fill: #fff;
      }
    </style>
  </defs>
  <g id="Symbol_35_1" data-name="Symbol 35 – 1" transform="translate(-115 -1926)">
    <circle id="Ellipse_9" data-name="Ellipse 9" class="cls-1" cx="19.5" cy="19.5" r="19.5" transform="translate(115 1926)"/>
    <g id="ig-02" transform="translate(121.1 1932.1)">
      <path id="Path_132" data-name="Path 132" class="cls-2" d="M23.889,19.573a4.31,4.31,0,0,1-4.316,4.3H7.216a4.317,4.317,0,0,1-4.316-4.3V7.216A4.313,4.313,0,0,1,7.216,2.9H19.584A4.32,4.32,0,0,1,23.9,7.216V19.573Z"/>
      <g id="Group_190" data-name="Group 190" transform="translate(5.481 5.481)">
        <path id="Path_133" data-name="Path 133" class="cls-3" d="M37.045,26.1H30.972A4.87,4.87,0,0,0,26.1,30.972v6.073a4.87,4.87,0,0,0,4.872,4.872h6.073a4.87,4.87,0,0,0,4.872-4.872V30.972A4.856,4.856,0,0,0,37.045,26.1ZM40.4,36.467A3.938,3.938,0,0,1,36.467,40.4H31.561a3.938,3.938,0,0,1-3.937-3.938V31.561a3.938,3.938,0,0,1,3.938-3.938h4.905A3.938,3.938,0,0,1,40.4,31.561Z" transform="translate(-26.1 -26.1)"/>
        <path id="Path_134" data-name="Path 134" class="cls-3" d="M65.771,60a4.171,4.171,0,1,0,4.171,4.171A4.173,4.173,0,0,0,65.771,60Zm0,6.674a2.5,2.5,0,1,1,2.5-2.5A2.509,2.509,0,0,1,65.771,66.674Z" transform="translate(-57.651 -56.229)"/>
        <path id="Path_135" data-name="Path 135" class="cls-3" d="M126.713,50.957a1.057,1.057,0,1,1-1.057-1.057A1.056,1.056,0,0,1,126.713,50.957Z" transform="translate(-113.644 -47.253)"/>
      </g>
    </g>
  </g>
</svg>
