<svg xmlns="http://www.w3.org/2000/svg" viewBox="0 0 91.863 91.863">
  <defs>
    <style>
      .cls-1 {
        fill: #d65d00;
      }

      .cls-2 {
        fill: #fff;
        fill-rule: evenodd;
      }
    </style>
  </defs>
  <g id="Symbol_26_1" data-name="Symbol 26 – 1" transform="translate(-4226.315 385.156)">
    <circle id="Ellipse_14" data-name="Ellipse 14" class="cls-1" cx="45.932" cy="45.932" r="45.932" transform="translate(4226.315 -385.156)"/>
    <path id="Law___Governance" data-name="Law _ Governance" class="cls-2" d="M131.12,756.645l-3.372-1.7a.937.937,0,0,0-1.187.3l-1.573,2.2-1.572-2.2a.937.937,0,0,0-1.187-.3l-3.372,1.7a.953.953,0,0,0-.518.846v5.364a.946.946,0,0,0,.932.961H130.7a.945.945,0,0,0,.942-.952v-5.374A.953.953,0,0,0,131.12,756.645Zm-1.328,5.268h-9.568v-3.8l2.138-1.075,1.884,2.615a.936.936,0,0,0,1.315.213.964.964,0,0,0,.21-.213l1.883-2.615,2.138,1.075ZM125.183,745a3.857,3.857,0,0,0-4.028,3.684q-.009.192,0,.384c-.009,1.988,1.526,4.993,3.833,4.993s3.842-3.005,3.842-4.993A3.866,3.866,0,0,0,125.183,745Zm-.2,7.131c-.932,0-1.959-1.817-1.959-3.092a1.968,1.968,0,0,1,1.959-1.9v-.039a1.969,1.969,0,0,1,1.959,1.94c0,1.248-1.025,3.093-1.959,3.093Zm22.641,4.518-3.372-1.7a.936.936,0,0,0-1.186.3l-1.573,2.206-1.573-2.206a.936.936,0,0,0-1.187-.3l-3.372,1.7a.951.951,0,0,0-.518.846v5.364a.946.946,0,0,0,.935.963h11.423a.945.945,0,0,0,.942-.952v-5.374a.952.952,0,0,0-.52-.846Zm-1.328,5.268h-9.569v-3.8l2.138-1.075,1.883,2.616a.938.938,0,0,0,1.315.212.98.98,0,0,0,.211-.212l1.883-2.616,2.138,1.075ZM141.693,745a3.857,3.857,0,0,0-4.028,3.684q-.01.192,0,.384c-.009,1.988,1.526,4.993,3.833,4.993s3.842-3.005,3.842-4.993A3.866,3.866,0,0,0,141.693,745Zm-.2,7.132c-.932,0-1.95-1.817-1.95-3.091a1.969,1.969,0,0,1,1.959-1.9V747.1a1.968,1.968,0,0,1,1.949,1.94C143.447,750.282,142.421,752.127,141.489,752.127Zm10.068,13.078H114.978a1.987,1.987,0,0,0-1.978,2v5.936a1.987,1.987,0,0,0,1.978,2h1.648v13.791a1.989,1.989,0,0,0,1.978,2h29.317a1.988,1.988,0,0,0,1.978-2v-13.8h1.648a1.988,1.988,0,0,0,1.978-2v-5.943A1.987,1.987,0,0,0,151.556,765.205Zm.094,7.941a.1.1,0,0,1-.027.067.093.093,0,0,1-.067.028h-2.6a.945.945,0,0,0-.942.951v14.733a.094.094,0,0,1-.094.095H118.613a.094.094,0,0,1-.095-.095V774.172a.946.946,0,0,0-.942-.951h-2.6a.094.094,0,0,1-.094-.1v-5.943a.094.094,0,0,1,.094-.1h36.579a.092.092,0,0,1,.067.028.094.094,0,0,1,.027.067v5.963Zm-9.258-1.655H124.151a1.987,1.987,0,0,0-1.978,2v9.084a1.988,1.988,0,0,0,1.978,2h18.242a1.988,1.988,0,0,0,1.978-2v-9.084A1.988,1.988,0,0,0,142.392,771.492Zm.095,11.081a.1.1,0,0,1-.028.067.093.093,0,0,1-.067.027H124.151a.093.093,0,0,1-.067-.027.1.1,0,0,1-.027-.067v-9.084a.1.1,0,0,1,.094-.095h18.242a.1.1,0,0,1,.095.095Z" transform="translate(4138.37 -1107.181)"/>
  </g>
</svg>
