<svg xmlns="http://www.w3.org/2000/svg" viewBox="0 0 39 39">
  <defs>
    <style>
      .cls-1 {
        fill: #f5f5f5;
      }

      .cls-2 {
        fill: #3e3e3e;
      }
    </style>
  </defs>
  <g id="Symbol_36_1" data-name="Symbol 36 – 1" transform="translate(-18 -1926)">
    <circle id="Ellipse_8" data-name="Ellipse 8" class="cls-1" cx="19.5" cy="19.5" r="19.5" transform="translate(18 1926)"/>
    <g id="mail" transform="translate(27 1939)">
      <path id="Path_30" data-name="Path 30" class="cls-2" d="M10.537,975.4a2.177,2.177,0,0,0-.589.1l8.938,7.836a.85.85,0,0,0,1.2,0l8.938-7.836a1.369,1.369,0,0,0-.563-.1Zm-1.511,1.306c0,.077-.026.154-.026.2v10.756a1.541,1.541,0,0,0,1.537,1.537H28.463A1.541,1.541,0,0,0,30,987.667V976.911a.5.5,0,0,0-.026-.2l-8.887,7.785a2.454,2.454,0,0,1-3.227,0Z" transform="translate(-9 -975.4)"/>
    </g>
  </g>
</svg>
