<svg xmlns="http://www.w3.org/2000/svg" viewBox="0 0 91.864 91.863">
  <defs>
    <style>
      .cls-1 {
        fill: #af5eb5;
      }

      .cls-2 {
        fill: #f5f5f5;
      }
    </style>
  </defs>
  <g id="Symbol_24_1" data-name="Symbol 24 – 1" transform="translate(-3594.136 394.729)">
    <circle id="Ellipse_14" data-name="Ellipse 14" class="cls-1" cx="45.932" cy="45.932" r="45.932" transform="translate(3594.136 -394.729)"/>
    <g id="science" transform="translate(3615.014 -369.675)">
      <path id="Path_214" data-name="Path 214" class="cls-2" d="M80.263,72.53a5.773,5.773,0,1,0,5.773,5.755A5.773,5.773,0,0,0,80.263,72.53Zm0,9.691a1.624,1.624,0,1,0,0-.023Z" transform="translate(-55.78 -55.33)"/>
      <path id="Path_215" data-name="Path 215" class="cls-2" d="M79.7,64.4a35.748,35.748,0,0,0-3.313-6.539,33.591,33.591,0,0,0,2.224-4.726c2.09-5.575,1.823-10.152-.734-13a3.828,3.828,0,0,0,.111-.411h0a3.738,3.738,0,0,0-7.056-2.307A26.242,26.242,0,0,0,59.01,40.939a37.057,37.057,0,0,0-7.564-3.493c-5.759-1.846-10.4-1.329-13.074,1.472a9.2,9.2,0,0,0-2.243,7.033,3.733,3.733,0,0,0,.831,7.061,3.925,3.925,0,0,0,.725.069H37.9a35.669,35.669,0,0,0,2.492,4.855c-5.625,8.334-7.116,16.493-3.106,20.692a9.126,9.126,0,0,0,6.853,2.561A20.481,20.481,0,0,0,50.358,80.1a37.843,37.843,0,0,0,8.611-4.153,36.4,36.4,0,0,0,6.8,3.064A20.537,20.537,0,0,0,72,80.1a9.14,9.14,0,0,0,6.853-2.561C81.5,74.728,81.826,70.067,79.7,64.4Zm-4.269-23.9a1.846,1.846,0,0,1-2.663-.461,1.818,1.818,0,0,1-.258-.6A7.148,7.148,0,0,1,75.434,40.506Zm-1.112-3.36a1.994,1.994,0,0,1,.365.037,1.846,1.846,0,0,1,1.477,1.564,9.037,9.037,0,0,0-3.083-1.117A1.846,1.846,0,0,1,74.322,37.146ZM70.6,39.356a3.761,3.761,0,0,0,.614,1.74A3.692,3.692,0,0,0,73.6,42.679a3.575,3.575,0,0,0,.725.074,3.743,3.743,0,0,0,2.5-.96c1.749,2.307,1.772,6.078.042,10.7A31.013,31.013,0,0,1,75.222,56.1,53.934,53.934,0,0,0,68.3,48.088a54.676,54.676,0,0,0-7.384-5.935A24.064,24.064,0,0,1,70.6,39.356ZM74.2,57.917a49.84,49.84,0,0,1-8.307,10.189,52.612,52.612,0,0,1-6.982,5.635,51.432,51.432,0,0,1-8.694-6.724,50.421,50.421,0,0,1-7.531-9.049,51.732,51.732,0,0,1,6.461-7.439,50.24,50.24,0,0,1,9.866-7.384,51.994,51.994,0,0,1,7.983,6.3,51.651,51.651,0,0,1,7.2,8.473ZM39.508,49.712a1.846,1.846,0,0,1-.485.923,20.1,20.1,0,0,1-.8-3.064A1.846,1.846,0,0,1,39.508,49.712Zm-3.655-.729a1.878,1.878,0,0,1,.512-.923,23.027,23.027,0,0,0,.8,3.1A1.846,1.846,0,0,1,35.854,48.983Zm3.881,3.484a3.733,3.733,0,0,0-1.324-6.788,2.809,2.809,0,0,0-.388-.055,7.225,7.225,0,0,1,1.7-5.413c2.15-2.252,6.11-2.6,11.149-.983a33.717,33.717,0,0,1,6.253,2.8,53.484,53.484,0,0,0-9.28,7.153A55.223,55.223,0,0,0,41.608,56.2a34.426,34.426,0,0,1-1.874-3.733ZM49.785,78.309c-5.039,1.62-9,1.274-11.149-.983-3.184-3.341-1.767-10.374,2.889-17.642A55.764,55.764,0,0,0,57.169,74.853a35.154,35.154,0,0,1-7.384,3.461ZM77.5,76.237c-2.15,2.252-6.115,2.6-11.154.983a33.567,33.567,0,0,1-5.607-2.446A55.26,55.26,0,0,0,67.2,69.463,52.573,52.573,0,0,0,75.31,59.67a33.441,33.441,0,0,1,2.64,5.385c1.86,4.961,1.707,8.929-.452,11.186Z" transform="translate(-33.946 -35.257)"/>
    </g>
  </g>
</svg>
