<svg xmlns="http://www.w3.org/2000/svg" viewBox="0 0 91.864 91.863">
  <defs>
    <style>
      .cls-1 {
        fill: #2d7cb8;
      }

      .cls-2 {
        fill: none;
      }

      .cls-3 {
        fill: #fff;
      }
    </style>
  </defs>
  <g id="Symbol_29_1" data-name="Symbol 29 – 1" transform="translate(-3135.316 113.206)">
    <circle id="Ellipse_14" data-name="Ellipse 14" class="cls-1" cx="45.932" cy="45.932" r="45.932" transform="translate(3135.316 -113.206)"/>
    <g id="tech" transform="translate(3162.457 -90.24)">
      <path id="Path_86" data-name="Path 86" class="cls-2" d="M30.944,20.088A1.244,1.244,0,1,0,29.7,18.844,1.267,1.267,0,0,0,30.944,20.088Z" transform="translate(-8.361 -2.672)"/>
      <path id="Path_87" data-name="Path 87" class="cls-2" d="M42.488,23.553A3.387,3.387,0,0,0,40,20.3v6.6A3.594,3.594,0,0,0,42.488,23.553Z" transform="translate(-8.805 -2.789)"/>
      <path id="Path_88" data-name="Path 88" class="cls-2" d="M20.944,20.088A1.244,1.244,0,1,0,19.7,18.844,1.267,1.267,0,0,0,20.944,20.088Z" transform="translate(-7.93 -2.672)"/>
      <path id="Path_89" data-name="Path 89" class="cls-2" d="M18.244,6.488A1.244,1.244,0,1,0,17,5.244,1.267,1.267,0,0,0,18.244,6.488Z" transform="translate(-7.814 -2.086)"/>
      <path id="Path_90" data-name="Path 90" class="cls-2" d="M34.344,6.488A1.244,1.244,0,1,0,33.1,5.244,1.267,1.267,0,0,0,34.344,6.488Z" transform="translate(-8.507 -2.086)"/>
      <path id="Path_91" data-name="Path 91" class="cls-2" d="M9.4,23.549A3.387,3.387,0,0,0,11.888,26.8V20.2A3.594,3.594,0,0,0,9.4,23.549Z" transform="translate(-7.486 -2.784)"/>
      <rect id="Rectangle_8" data-name="Rectangle 8" class="cls-2" width="11.292" height="8.325" transform="translate(12.153 31.291)"/>
      <path id="Path_92" data-name="Path 92" class="cls-2" d="M36.966,14H14V31.894H36.966Zm-6.7,1.531a3.158,3.158,0,1,1-3.158,3.158A3.186,3.186,0,0,1,30.268,15.531Zm-9.569,0a3.158,3.158,0,1,1-3.158,3.158A3.186,3.186,0,0,1,20.7,15.531ZM35.052,27.4a2.165,2.165,0,0,1-2.2,2.2H18.115a2.165,2.165,0,0,1-2.2-2.2v-1.34a2.165,2.165,0,0,1,2.2-2.2H32.851a2.165,2.165,0,0,1,2.2,2.2Z" transform="translate(-7.684 -2.517)"/>
      <path id="Path_93" data-name="Path 93" class="cls-2" d="M38.52,45.4H11.344a1.244,1.244,0,0,0,0,2.488H38.52a1.244,1.244,0,1,0,0-2.488Z" transform="translate(-7.516 -3.87)"/>
      <path id="Path_94" data-name="Path 94" class="cls-2" d="M33.024,26.3H18.287a.254.254,0,0,0-.287.287v1.34a.254.254,0,0,0,.287.287H33.023a.254.254,0,0,0,.287-.287v-1.34A.254.254,0,0,0,33.024,26.3Z" transform="translate(-7.857 -3.047)"/>
      <path id="Path_95" data-name="Path 95" class="cls-3" d="M38.4,41.616H32.758V33.291H38.6V28.028a5.347,5.347,0,0,0,0-10.526V11.569h-4.4V8.124a3.192,3.192,0,0,0,2.2-2.966,3.158,3.158,0,0,0-6.316,0,3.1,3.1,0,0,0,2.2,2.966v3.445H18.787V8.124a3.192,3.192,0,0,0,2.2-2.966,3.158,3.158,0,0,0-6.316,0,3.1,3.1,0,0,0,2.2,2.966v3.445H11.8V17.5a5.347,5.347,0,0,0,0,10.526v5.263h5.837v8.325H11.228a3.158,3.158,0,1,0,0,6.316H38.4a3.158,3.158,0,1,0,0-6.316Zm-5.167-37.7a1.244,1.244,0,1,1-1.244,1.244A1.267,1.267,0,0,1,33.237,3.914Zm-15.406,0a1.244,1.244,0,1,1-1.244,1.244A1.267,1.267,0,0,1,17.83,3.914ZM41.083,22.765A3.387,3.387,0,0,1,38.6,26.018v-6.6A3.594,3.594,0,0,1,41.083,22.765Zm-31.769,0A3.387,3.387,0,0,1,11.8,19.511v6.6A3.594,3.594,0,0,1,9.314,22.765Zm4.4-9.282H36.681V31.377H13.716Zm5.837,19.808H30.844v8.325H19.553ZM38.4,46.018H11.228a1.244,1.244,0,1,1,0-2.488H38.4a1.244,1.244,0,1,1,0,2.488Z" transform="translate(-7.4 -2)"/>
      <path id="Path_96" data-name="Path 96" class="cls-3" d="M20.858,21.916A3.158,3.158,0,1,0,17.7,18.758,3.186,3.186,0,0,0,20.858,21.916Zm0-4.4a1.244,1.244,0,1,1-1.244,1.244A1.267,1.267,0,0,1,20.858,17.514Z" transform="translate(-7.844 -2.586)"/>
      <path id="Path_97" data-name="Path 97" class="cls-3" d="M30.858,21.916A3.158,3.158,0,1,0,27.7,18.758,3.186,3.186,0,0,0,30.858,21.916Zm0-4.4a1.244,1.244,0,1,1-1.244,1.244A1.267,1.267,0,0,1,30.858,17.514Z" transform="translate(-8.275 -2.586)"/>
      <path id="Path_98" data-name="Path 98" class="cls-3" d="M32.937,24.3H18.2A2.165,2.165,0,0,0,16,26.5v1.34a2.165,2.165,0,0,0,2.2,2.2H32.937a2.165,2.165,0,0,0,2.2-2.2V26.5A2.165,2.165,0,0,0,32.937,24.3Zm.287,3.541a.254.254,0,0,1-.287.287H18.2a.254.254,0,0,1-.287-.287V26.5a.254.254,0,0,1,.287-.287H32.937a.254.254,0,0,1,.287.287Z" transform="translate(-7.771 -2.961)"/>
    </g>
  </g>
</svg>
