<svg xmlns="http://www.w3.org/2000/svg" viewBox="0 0 37.188 37.188">
  <defs>
    <style>
      .cls-1 {
        fill: #f5f5f5;
      }

      .cls-2 {
        fill: #3c5b9a;
        fill-rule: evenodd;
      }
    </style>
  </defs>
  <g id="Symbol_15_1" data-name="Symbol 15 – 1" transform="translate(-17 -312.388)">
    <ellipse id="Ellipse_11" data-name="Ellipse 11" class="cls-1" cx="18.594" cy="18.594" rx="18.594" ry="18.594" transform="translate(17 312.388)"/>
    <path id="Path_153" data-name="Path 153" class="cls-2" d="M303.286-343.935v18a1.2,1.2,0,0,1-1.153.941c-1.576,0-3.152,0-4.728.005-.244,0-.325-.073-.325-.319q.011-3.509,0-7.018c0-.256.1-.318.332-.313.588.011,1.176,0,1.763,0,.548,0,.541,0,.605-.553.083-.714.168-1.428.28-2.138.051-.323-.048-.421-.366-.415-.763.015-1.526,0-2.289,0-.17,0-.327.007-.324-.241.009-.6-.027-1.2.014-1.791.056-.824.3-1.121,1.037-1.221a10.655,10.655,0,0,1,1.681-.05c.324.008.409-.112.4-.41-.015-.647-.023-1.295,0-1.941.013-.332-.135-.455-.427-.459-.885-.011-1.774-.073-2.653-.006a3.462,3.462,0,0,0-3.184,3.3c-.043.819-.049,1.64-.051,2.46,0,.277-.094.369-.371.361-.625-.016-1.251,0-1.876-.009-.264-.006-.345.092-.341.349.013.8.014,1.593,0,2.389,0,.271.071.38.357.372.587-.017,1.176.015,1.763-.012.355-.016.473.086.471.454q-.024,3.379,0,6.757c0,.375-.127.449-.474.447-2.952-.013-5.9-.007-8.856-.007-.9,0-1.3-.4-1.3-1.293,0-5.687.009-11.374-.011-17.061,0-.76.188-1.312.958-1.557H302.31A1.456,1.456,0,0,1,303.286-343.935Z" transform="translate(-257.68 665.875)"/>
  </g>
</svg>
