<svg xmlns="http://www.w3.org/2000/svg" viewBox="0 0 37.188 37.188">
  <defs>
    <style>
      .cls-1 {
        fill: #f5f5f5;
      }

      .cls-2 {
        fill: #3e3e3e;
      }
    </style>
  </defs>
  <g id="Symbol_13_1" data-name="Symbol 13 – 1" transform="translate(-160.722 -312.388)">
    <ellipse id="Ellipse_8" data-name="Ellipse 8" class="cls-1" cx="18.594" cy="18.594" rx="18.594" ry="18.594" transform="translate(160.722 312.388)"/>
    <g id="mail" transform="translate(169.304 324.784)">
      <path id="Path_30" data-name="Path 30" class="cls-2" d="M10.465,975.4a2.076,2.076,0,0,0-.562.1l8.523,7.472a.811.811,0,0,0,1.148,0L28.1,975.5a1.306,1.306,0,0,0-.537-.1Zm-1.441,1.245c0,.073-.024.147-.024.2V987.1a1.469,1.469,0,0,0,1.465,1.465H27.559a1.469,1.469,0,0,0,1.465-1.465V976.841a.477.477,0,0,0-.024-.2l-8.474,7.424a2.34,2.34,0,0,1-3.077,0Z" transform="translate(-9 -975.4)"/>
    </g>
  </g>
</svg>
