<svg xmlns="http://www.w3.org/2000/svg" viewBox="0 0 33 33">
  <defs>
    <style>
      .cls-1 {
        fill: red;
      }

      .cls-2, .cls-4 {
        fill: none;
      }

      .cls-2 {
        stroke: #ff9d9d;
        stroke-width: 4px;
      }

      .cls-3 {
        stroke: none;
      }
    </style>
  </defs>
  <g id="Symbol_32_1" data-name="Symbol 32 – 1" transform="translate(-327 -483)">
    <g id="Group_418" data-name="Group 418" transform="translate(-2694 126)">
      <g id="swipe" transform="translate(3012.55 348.8)">
        <path id="Path_191" data-name="Path 191" class="cls-1" d="M69.8,42v-.02a.7.7,0,0,0,.02.2A.566.566,0,0,1,69.8,42Z" transform="translate(-40.063 -18.858)"/>
        <path id="Path_192" data-name="Path 192" class="cls-1" d="M32.483,23.267a1.117,1.117,0,0,0-.592.163,1.131,1.131,0,0,0-1.022-.654,1.117,1.117,0,0,0-.592.163,1.131,1.131,0,0,0-1.022-.654,1.315,1.315,0,0,0-.49.1V19.324A1.12,1.12,0,0,0,27.641,18.2a1.134,1.134,0,0,0-1.124,1.124v5.108l-.347-.715a1.154,1.154,0,0,0-1.062-.735,1.283,1.283,0,0,0-.388.061,1.066,1.066,0,0,0-.633.592,1.133,1.133,0,0,0-.041.858.02.02,0,0,0,.02.02L26.415,29.5c0,.02.02.02.02.041a4.448,4.448,0,0,0,.879.981c.02.02.041.02.061.041h0l.041.041a3.891,3.891,0,0,0,6.19-2.942V24.39A1.108,1.108,0,0,0,32.483,23.267Zm-2.758,7.457a3.151,3.151,0,0,1-1.9-.613l-.041-.041a.427.427,0,0,0-.123-.082,3.379,3.379,0,0,1-.674-.756l-2.329-4.944a.462.462,0,0,1,.02-.368.447.447,0,0,1,.266-.245.486.486,0,0,1,.613.286.02.02,0,0,0,.02.02l.96,2.043a.343.343,0,0,0,.368.184.325.325,0,0,0,.245-.306V19.324a.49.49,0,1,1,.981,0V23.41a.327.327,0,1,0,.654,0,.49.49,0,0,1,.981,0v.49a.327.327,0,1,0,.654,0,.49.49,0,0,1,.981,0v.49a.327.327,0,1,0,.654,0,.49.49,0,1,1,.981,0v3.269A3.35,3.35,0,0,1,29.725,30.724Z" transform="translate(-3.604)"/>
        <path id="Path_193" data-name="Path 193" class="cls-1" d="M22.157,20.859H20.543l.368-.368a.318.318,0,0,0-.449-.449l-.919.919h0c-.041.041-.061.061-.061.1a.26.26,0,0,0,0,.245.447.447,0,0,0,.061.1h0l.919.919a.3.3,0,0,0,.449,0,.321.321,0,0,0,0-.449l-.368-.368h1.614a.327.327,0,0,0,0-.654Z" transform="translate(0 -1.392)"/>
        <path id="Path_194" data-name="Path 194" class="cls-1" d="M64.061,25A.447.447,0,0,0,64,24.9h0A.447.447,0,0,1,64.061,25Z" transform="translate(-35.448 -5.331)"/>
        <path id="Path_195" data-name="Path 195" class="cls-1" d="M63.9,26.7a.174.174,0,0,0,.061-.1c0,.041-.02.061-.061.1Z" transform="translate(-35.369 -6.684)"/>
        <path id="Path_196" data-name="Path 196" class="cls-1" d="M52.6,21.063a.446.446,0,0,0-.061-.1h0l-.919-.919a.318.318,0,0,0-.449.449l.368.368H49.927a.327.327,0,1,0,0,.654H51.52l-.368.368a.321.321,0,0,0,0,.449.3.3,0,0,0,.449,0l.919-.919h0c.041-.041.061-.061.061-.1A.342.342,0,0,0,52.6,21.063Z" transform="translate(-23.99 -1.392)"/>
      </g>
      <g id="Ellipse_15" data-name="Ellipse 15" class="cls-2" transform="translate(3021 357)">
        <circle class="cls-3" cx="16.5" cy="16.5" r="16.5"/>
        <circle class="cls-4" cx="16.5" cy="16.5" r="14.5"/>
      </g>
    </g>
  </g>
</svg>
