<svg xmlns="http://www.w3.org/2000/svg" viewBox="0 0 37.188 37.188">
  <defs>
    <style>
      .cls-1 {
        fill: #f5f5f5;
      }

      .cls-2 {
        fill: #55acee;
      }
    </style>
  </defs>
  <g id="Symbol_14_1" data-name="Symbol 14 – 1" transform="translate(-88.372 -312.388)">
    <ellipse id="Ellipse_10" data-name="Ellipse 10" class="cls-1" cx="18.594" cy="18.594" rx="18.594" ry="18.594" transform="translate(88.372 312.388)"/>
    <g id="Twitter_Logo_Blue" transform="translate(96.954 322.877)">
      <path id="Path_29" data-name="Path 29" class="cls-2" d="M81.3,114.721a11.61,11.61,0,0,0,11.689-11.69c0-.178,0-.355-.012-.531a8.36,8.36,0,0,0,2.05-2.127,8.2,8.2,0,0,1-2.36.646,4.123,4.123,0,0,0,1.806-2.272,8.233,8.233,0,0,1-2.609,1,4.112,4.112,0,0,0-7,3.747A11.664,11.664,0,0,1,76.394,99.2a4.111,4.111,0,0,0,1.272,5.484,4.078,4.078,0,0,1-1.865-.514v.052a4.11,4.11,0,0,0,3.3,4.027,4.1,4.1,0,0,1-1.855.071,4.113,4.113,0,0,0,3.838,2.853,8.243,8.243,0,0,1-5.1,1.762,8.365,8.365,0,0,1-.978-.059,11.631,11.631,0,0,0,6.3,1.842" transform="translate(-75 -98.45)"/>
    </g>
  </g>
</svg>
